<?xml version="1.0" standalone="no"?>
<!DOCTYPE svg PUBLIC "-//W3C//DTD SVG 20010904//EN"
 "http://www.w3.org/TR/2001/REC-SVG-20010904/DTD/svg10.dtd">
<svg version="1.0" xmlns="http://www.w3.org/2000/svg"
 width="3189.000000pt" height="3189.000000pt" viewBox="0 0 3189.000000 3189.000000"
 preserveAspectRatio="xMidYMid meet">

<g transform="translate(0.000000,3189.000000) scale(0.100000,-0.100000)"
fill="#000000" stroke="none">
<path d="M3560 15940 l0 -2660 5315 0 5315 0 0 2660 0 2660 -5315 0 -5315 0 0
-2660z"/>
<path d="M17690 15940 l0 -2660 5315 0 5315 0 0 2660 0 2660 -5315 0 -5315 0
0 -2660z"/>
<path d="M20150 9684 c-130 -12 -346 -48 -463 -78 -932 -239 -1674 -981 -1913
-1912 -60 -237 -78 -386 -78 -664 0 -278 18 -427 78 -664 188 -732 692 -1361
1368 -1705 1028 -524 2272 -327 3088 489 404 405 662 917 751 1491 33 207 33
571 0 778 -44 287 -120 529 -247 786 -383 781 -1128 1325 -1990 1455 -134 20
-480 34 -594 24z"/>
</g>
</svg>
